HIERARCHY
ROOT Hips
{
	OFFSET 0.000000 0.000000 0.000000
	CHANNELS 6 Xposition Yposition Zposition Zrotation Yrotation Xrotation 
	JOINT LeftUpLeg_virtual
	{
		OFFSET 0.000000 0.000000 0.000000
		CHANNELS 3 Zrotation Yrotation Xrotation
		JOINT LeftUpLeg
		{
			OFFSET 10.205400 -3.823500 0.155100
			CHANNELS 3 Zrotation Yrotation Xrotation
			JOINT LeftLeg
			{
				OFFSET 0.708757 -12.982077 0.567790
				CHANNELS 3 Zrotation Yrotation Xrotation
				JOINT LeftFoot
				{
					OFFSET -0.708756 -10.717838 -2.184338
					CHANNELS 3 Zrotation Yrotation Xrotation
					JOINT LeftToeBase
					{
						OFFSET 0.108149 -7.191104 7.560241
						CHANNELS 3 Zrotation Yrotation Xrotation
						End Site
						{
							OFFSET 0.000000 0.000000 0.000000
						}
					}
				}
			}
		}
	}
	JOINT RightUpLeg_virtual
	{
		OFFSET 0.000000 0.000000 0.000000
		CHANNELS 3 Zrotation Yrotation Xrotation
		JOINT RightUpLeg
		{
			OFFSET -10.205400 -3.823500 0.005500
			CHANNELS 3 Zrotation Yrotation Xrotation
			JOINT RightLeg
			{
				OFFSET -0.708756 -12.982134 0.610632
				CHANNELS 3 Zrotation Yrotation Xrotation
				JOINT RightFoot
				{
					OFFSET 0.708754 -10.717769 -1.945823
					CHANNELS 3 Zrotation Yrotation Xrotation
					JOINT RightToeBase
					{
						OFFSET -0.108140 -7.191069 7.372968
						CHANNELS 3 Zrotation Yrotation Xrotation
						End Site
						{
							OFFSET 0.000000 0.000000 0.000000
						}
					}
				}
			}
		}
	}
	JOINT Spine_virtual
	{
		OFFSET 0.000000 0.000000 0.000000
		CHANNELS 3 Zrotation Yrotation Xrotation
		JOINT Spine
		{
			OFFSET 0.000000 6.876099 0.125700
			CHANNELS 3 Zrotation Yrotation Xrotation
			JOINT Spine1
			{
				OFFSET 0.000000 8.022060 0.146608
				CHANNELS 3 Zrotation Yrotation Xrotation
				JOINT Spine2
				{
					OFFSET 0.000000 9.168068 0.167552
					CHANNELS 3 Zrotation Yrotation Xrotation
					JOINT Neck_virtual
					{
						OFFSET 0.000000 0.000000 0.000000
						CHANNELS 3 Zrotation Yrotation Xrotation
						JOINT Neck
						{
							OFFSET 0.000000 10.314075 0.188496
							CHANNELS 3 Zrotation Yrotation Xrotation
							JOINT Head
							{
								OFFSET 0.000000 7.643700 -2.377400
								CHANNELS 3 Zrotation Yrotation Xrotation
								End Site
								{
									OFFSET 0.000000 0.000000 0.000000
								}
							}
						}
					}
					JOINT LeftShoulder_virtual
					{
						OFFSET 0.000000 0.000000 0.000000
						CHANNELS 3 Zrotation Yrotation Xrotation
						JOINT LeftShoulder
						{
							OFFSET 4.392200 8.824978 0.174984
							CHANNELS 3 Zrotation Yrotation Xrotation
							JOINT LeftArm
							{
								OFFSET 8.771219 -2.981674 -0.026999
								CHANNELS 3 Zrotation Yrotation Xrotation
								JOINT LeftForeArm
								{
									OFFSET 8.512804 0.000000 -0.000000
									CHANNELS 3 Zrotation Yrotation Xrotation
									JOINT LeftHand
									{
										OFFSET 18.484802 0.000000 -0.000000
										CHANNELS 3 Zrotation Yrotation Xrotation
										End Site
										{
											OFFSET 0.000000 0.000000 0.000000
										}
									}
								}
							}
						}
					}
					JOINT RightShoulder_virtual
					{
						OFFSET 0.000000 0.000000 0.000000
						CHANNELS 3 Zrotation Yrotation Xrotation
						JOINT RightShoulder
						{
							OFFSET -4.392200 8.824993 0.141379
							CHANNELS 3 Zrotation Yrotation Xrotation
							JOINT RightArm
							{
								OFFSET -8.771282 -2.981682 -0.094208
								CHANNELS 3 Zrotation Yrotation Xrotation
								JOINT RightForeArm
								{
									OFFSET -8.494598 0.000000 0.000000
									CHANNELS 3 Zrotation Yrotation Xrotation
									JOINT RightHand
									{
										OFFSET -18.483803 0.000000 0.000001
										CHANNELS 3 Zrotation Yrotation Xrotation
										End Site
										{
											OFFSET 0.000000 0.000000 0.000000
										}
									}
								}
							}
						}
					}
				}
			}
		}
	}
}
MOTION
Frames: 8
Frame Time: 0.033333
4.007442 35.526638 29.514448 179.434602 3.102288 -179.674861 -1.546418 -5.838217 4.132790 6.180471 4.941927 -19.191115 15.580148 8.327146 31.167724 -2.362652 9.405952 18.141336 0.000000 0.000000 0.000000 5.777858 -2.326093 1.978939 8.455448 2.346807 -19.676423 -3.883458 -1.546979 30.168406 -3.129932 5.795210 5.605816 0.000000 0.000000 0.000000 1.930471 -1.478413 -8.166925 2.624187 2.489753 -8.022852 -0.253780 -1.523889 10.495682 0.063374 0.189532 0.033099 -0.491969 0.234545 11.718629 -2.616040 -1.065756 23.556450 0.000000 0.000000 0.000000 1.297949 0.765019 8.378082 -11.512033 -3.754642 0.391263 -42.596605 23.476289 9.577935 -9.233935 -60.020151 13.093993 0.000000 0.000000 0.000000 -3.065288 2.116920 7.558214 17.190068 0.289671 -6.791575 46.896779 -11.656919 -7.351963 -163.247340 74.496300 -169.523137 0.000000 0.000000 0.000000 
4.204640 35.713589 29.604002 179.230666 2.189845 -179.662867 -1.671686 -5.703952 4.275105 5.911047 4.882435 -20.159459 15.204375 8.349725 29.867150 -2.159749 9.237486 18.846450 0.000000 0.000000 0.000000 5.933835 -1.964243 2.375748 8.421017 3.361325 -19.361590 -4.040463 -1.679678 28.923273 -3.261131 5.010297 5.990119 0.000000 0.000000 0.000000 1.799446 -1.360093 -7.856076 2.576948 2.464298 -7.732725 -0.324125 -1.532644 10.501541 0.019485 0.104436 -0.051132 -0.433628 0.174764 11.799633 -2.439073 -1.481753 23.203363 0.000000 0.000000 0.000000 1.306769 0.883635 8.443877 -11.661891 -3.962127 0.483169 -43.518222 23.816625 10.504018 -8.149055 -57.585284 11.892975 0.000000 0.000000 0.000000 -3.008278 2.228322 7.636608 18.126473 0.433987 -6.797407 48.694089 -9.445867 -8.557786 -161.323782 74.064072 -167.710541 0.000000 0.000000 0.000000 
4.338593 35.896080 29.684774 178.973851 1.070666 -179.620834 -1.744264 -5.583934 4.486613 5.330114 4.582336 -21.259790 14.612819 8.139061 28.589302 -2.206779 8.625973 19.130692 0.000000 0.000000 0.000000 5.992644 -1.859823 2.752551 8.261084 4.099470 -19.134809 -4.204563 -1.769831 27.491544 -3.235221 4.231242 6.511884 0.000000 0.000000 0.000000 1.630011 -1.346886 -7.680662 2.486462 2.534347 -7.443213 -0.328459 -1.463854 10.549641 0.091136 0.135751 0.029410 -0.365608 0.153961 11.825381 -2.221852 -1.774609 22.987212 0.000000 0.000000 0.000000 1.315416 0.802573 8.441179 -11.803150 -4.347020 0.486629 -44.588503 24.273408 11.404346 -7.757857 -55.238048 11.427269 0.000000 0.000000 0.000000 -2.998865 2.218175 7.466400 18.928906 0.483834 -6.436239 50.064983 -7.274502 -9.459536 -160.344223 73.653359 -166.827890 0.000000 0.000000 0.000000 
4.417951 36.053604 29.784218 178.802044 -0.267090 -179.569116 -1.651740 -5.434209 4.753685 4.350976 3.942366 -22.470670 13.771381 7.567792 27.418546 -2.796174 7.375519 18.521876 0.000000 0.000000 0.000000 6.028004 -2.100662 3.120893 8.053993 4.606568 -18.860989 -4.290866 -1.803529 25.831793 -3.095928 3.525644 7.192729 0.000000 0.000000 0.000000 1.576102 -1.554758 -7.434052 2.419465 2.633956 -7.274196 -0.393021 -1.463429 10.535439 0.055988 0.084095 0.012721 -0.317107 0.142237 11.969927 -1.983133 -2.010907 22.669715 0.000000 0.000000 0.000000 1.374225 0.857281 8.490180 -11.819241 -4.521890 0.497220 -45.600197 24.915582 12.365621 -7.157290 -53.377597 10.755051 0.000000 0.000000 0.000000 -2.870731 2.267433 7.602158 19.422246 0.513827 -6.522905 50.970352 -5.822092 -9.097254 -160.255199 73.379468 -166.722773 0.000000 0.000000 0.000000 
4.472248 36.171997 29.873922 178.596046 -1.395438 -179.490760 -1.509495 -5.319185 5.110547 3.059145 3.053521 -23.652028 12.845311 6.879717 26.982075 -3.782706 5.591873 16.286200 0.000000 0.000000 0.000000 6.008941 -2.256122 3.421491 7.820591 4.889708 -18.618647 -4.329479 -1.755629 24.207165 -3.000349 2.885918 7.888499 0.000000 0.000000 0.000000 1.464756 -1.541511 -7.377927 2.368531 2.805131 -7.020548 -0.365069 -1.444006 10.579736 0.144441 0.076593 0.024143 -0.247572 0.116667 11.925115 -1.782398 -2.268628 22.339744 0.000000 0.000000 0.000000 1.421839 0.857504 8.464545 -11.823434 -4.663274 0.553783 -46.670703 25.776507 13.503123 -6.752182 -52.024581 10.467588 0.000000 0.000000 0.000000 -2.877852 2.179961 7.565267 19.432025 0.842310 -6.205150 51.657609 -4.864170 -7.499752 -159.170237 73.211452 -165.614247 0.000000 0.000000 0.000000 
4.498766 36.235600 29.942747 178.526487 -2.404633 -179.545292 -1.658751 -5.164430 5.449535 1.879617 2.781052 -24.749235 12.523925 6.855094 26.704429 -3.974365 4.427643 15.162742 0.000000 0.000000 0.000000 6.023323 -2.297332 3.720933 7.657013 4.952685 -18.305742 -4.292961 -1.637209 22.974998 -2.966132 2.360019 8.417769 0.000000 0.000000 0.000000 1.363207 -1.633014 -7.162304 2.441145 3.037127 -6.846396 -0.181339 -1.391127 10.532077 0.172756 0.178550 0.055677 -0.189636 0.141063 11.973359 -1.723794 -2.607318 22.028502 0.000000 0.000000 0.000000 1.534649 0.840711 8.454514 -11.847250 -4.601829 0.560854 -47.472383 26.784899 14.717437 -6.651316 -51.197910 10.323363 0.000000 0.000000 0.000000 -2.705131 2.210527 7.452670 19.084498 1.201198 -5.993710 51.758047 -4.609745 -5.015926 -159.696134 73.255691 -166.005385 0.000000 0.000000 0.000000 
4.515443 36.261246 29.977076 178.533195 -3.446570 -179.580276 -1.681811 -4.979917 5.751941 0.685644 2.518790 -25.660929 12.305394 7.122344 25.735697 -3.762166 3.720758 15.395584 0.000000 0.000000 0.000000 6.040570 -2.335652 3.947937 7.559983 4.851013 -18.026187 -4.167711 -1.484263 22.095577 -2.972719 2.003220 8.705110 0.000000 0.000000 0.000000 1.388876 -1.504269 -6.980328 2.533004 3.270968 -6.700712 -0.105803 -1.347761 10.471751 0.165937 0.167510 0.070255 -0.081970 0.161714 11.941511 -1.403798 -2.691753 21.769186 0.000000 0.000000 0.000000 1.635552 0.853243 8.444116 -11.792322 -4.477790 0.526960 -48.209815 27.647508 15.536163 -6.677304 -50.680861 10.475863 0.000000 0.000000 0.000000 -2.704375 2.195570 7.480634 18.973350 1.534054 -5.626151 51.612215 -4.629418 -2.290544 -160.121136 73.299596 -166.270956 0.000000 0.000000 0.000000 
4.513426 36.270714 29.963568 178.605540 -4.765096 -179.587653 -1.738102 -5.079705 5.985929 -0.325633 2.172843 -26.394158 12.122313 7.468172 24.592043 -3.527824 3.147119 15.620335 0.000000 0.000000 0.000000 6.096593 -2.619819 4.120197 7.479919 4.632444 -17.828915 -3.979110 -1.349054 21.548227 -3.002213 1.803167 8.759166 0.000000 0.000000 0.000000 1.508880 -1.597897 -6.885700 2.592628 3.383934 -6.548153 -0.054340 -1.426480 10.382097 0.109500 0.104730 0.024857 0.094260 0.058347 11.922282 -0.960143 -2.709803 21.520145 0.000000 0.000000 0.000000 1.705379 0.951043 8.384749 -11.830144 -4.166814 0.411647 -48.726416 28.450832 16.321937 -6.423617 -50.366778 10.420982 0.000000 0.000000 0.000000 -2.570042 2.267353 7.473589 18.802286 1.946520 -5.337018 51.200467 -4.916339 0.342977 -160.723763 73.620649 -166.706162 0.000000 0.000000 0.000000 
